<svg xmlns="http://www.w3.org/2000/svg" xmlns:xlink="http://www.w3.org/1999/xlink" width="1080" zoomAndPan="magnify" viewBox="0 0 810 215.999996" height="288" preserveAspectRatio="xMidYMid meet" version="1.0"><defs><clipPath id="d80ba451ea"><path d="M 0 0 L 809.25 0 L 809.25 216 L 0 216 Z M 0 0 " clip-rule="nonzero"/></clipPath></defs><rect x="-81" width="972" fill="#ffffff" y="-21.6" height="259.199995" fill-opacity="1"/><rect x="-81" width="972" fill="#ffffff" y="-21.6" height="259.199995" fill-opacity="1"/><g clip-path="url(#d80ba451ea)"><path fill="#fefefe" d="M -99.289062 -217.664062 C 223.988281 -217.664062 547.265625 -217.664062 880.335938 -217.664062 C 880.335938 -2.089844 880.335938 213.480469 880.335938 435.585938 C 557.058594 435.585938 233.785156 435.585938 -99.289062 435.585938 C -99.289062 220.015625 -99.289062 4.441406 -99.289062 -217.664062 Z M -99.289062 -217.664062 " fill-opacity="1" fill-rule="nonzero"/></g><path fill="#093c77" d="M 98.820312 4.101562 C 99.269531 4.101562 99.714844 4.101562 100.175781 4.101562 C 118.925781 4.175781 174.011719 7.222656 187.710938 20.925781 C 187.777344 22.035156 187.796875 23.148438 187.800781 24.257812 C 187.804688 24.980469 187.808594 25.707031 187.8125 26.449219 C 187.8125 27.25 187.8125 28.050781 187.8125 28.878906 C 187.816406 29.714844 187.820312 30.554688 187.824219 31.417969 C 187.832031 33.726562 187.835938 36.039062 187.839844 38.347656 C 187.839844 39.792969 187.84375 41.242188 187.847656 42.691406 C 187.855469 47.230469 187.863281 51.773438 187.863281 56.316406 C 187.867188 61.535156 187.878906 66.75 187.894531 71.96875 C 187.910156 76.011719 187.917969 80.058594 187.917969 84.101562 C 187.917969 86.511719 187.921875 88.917969 187.933594 91.328125 C 187.988281 103.898438 187.914062 116.339844 183.964844 128.417969 C 183.714844 129.214844 183.714844 129.214844 183.457031 130.027344 C 182.125 134.171875 180.667969 138.203125 178.78125 142.132812 C 178.574219 142.574219 178.363281 143.011719 178.144531 143.464844 C 172.875 154.335938 166.136719 163.464844 157.734375 172.117188 C 157.355469 172.515625 156.972656 172.914062 156.578125 173.324219 C 151.25 178.871094 145.808594 183.96875 139.636719 188.558594 C 138.664062 189.296875 137.710938 190.0625 136.765625 190.828125 C 129.730469 196.484375 122.027344 201.175781 114.367188 205.929688 C 113.453125 206.5 113.453125 206.5 112.519531 207.082031 C 110.871094 208.105469 109.214844 209.113281 107.550781 210.113281 C 107.066406 210.414062 106.582031 210.714844 106.085938 211.023438 C 104.023438 212.238281 102.726562 212.941406 100.304688 212.957031 C 97.945312 212.144531 95.804688 211.101562 93.640625 209.875 C 93.160156 209.605469 92.679688 209.335938 92.1875 209.058594 C 87.066406 206.109375 82.140625 202.855469 77.21875 199.589844 C 76.816406 199.324219 76.417969 199.0625 76.007812 198.789062 C 61.171875 188.960938 46.75 177.421875 35.921875 163.1875 C 35.667969 162.855469 35.414062 162.519531 35.152344 162.179688 C 17.761719 139.183594 13.226562 113.886719 13.40625 85.558594 C 13.417969 83.277344 13.417969 80.992188 13.421875 78.707031 C 13.425781 74.410156 13.441406 70.117188 13.460938 65.820312 C 13.484375 60.914062 13.492188 56.011719 13.503906 51.109375 C 13.523438 41.046875 13.554688 30.988281 13.597656 20.925781 C 14.414062 20.617188 15.230469 20.308594 16.046875 20.003906 C 16.5 19.832031 16.957031 19.660156 17.425781 19.484375 C 33.410156 13.570312 50.765625 10.160156 67.53125 7.289062 C 67.980469 7.210938 68.433594 7.136719 68.894531 7.054688 C 78.851562 5.359375 88.699219 4.085938 98.820312 4.101562 Z M 98.820312 4.101562 " fill-opacity="1" fill-rule="nonzero"/><path fill="#deb438" d="M 58.289062 37.746094 C 59.066406 37.734375 59.84375 37.726562 60.644531 37.71875 C 61.503906 37.722656 62.359375 37.730469 63.21875 37.738281 C 64.125 37.734375 65.03125 37.726562 65.9375 37.71875 C 68.394531 37.707031 70.851562 37.710938 73.308594 37.722656 C 75.882812 37.730469 78.457031 37.722656 81.027344 37.71875 C 85.351562 37.710938 89.671875 37.71875 93.992188 37.734375 C 98.988281 37.75 103.980469 37.746094 108.972656 37.726562 C 113.265625 37.714844 117.554688 37.710938 121.84375 37.71875 C 124.40625 37.726562 126.964844 37.726562 129.527344 37.714844 C 131.9375 37.707031 134.34375 37.710938 136.75 37.730469 C 137.636719 37.734375 138.519531 37.734375 139.402344 37.726562 C 146.148438 37.679688 146.148438 37.679688 149.007812 39.488281 C 150.328125 41.761719 150.523438 43.253906 150.597656 45.882812 C 150.613281 46.328125 150.628906 46.773438 150.644531 47.234375 C 150.691406 48.703125 150.710938 50.171875 150.730469 51.640625 C 150.742188 52.402344 150.742188 52.402344 150.757812 53.175781 C 150.804688 55.859375 150.835938 58.539062 150.847656 61.222656 C 150.863281 63.429688 150.90625 65.628906 150.980469 67.832031 C 151.636719 88.0625 151.636719 88.0625 146.714844 93.480469 C 145.089844 94.945312 143.421875 96.21875 141.582031 97.398438 C 140.226562 98.308594 139.25 99.390625 138.242188 100.667969 C 136.167969 103.121094 133.984375 105.460938 131.785156 107.804688 C 131.402344 108.214844 131.019531 108.625 130.625 109.046875 C 129.84375 109.882812 129.0625 110.714844 128.28125 111.550781 C 126.46875 113.488281 124.660156 115.429688 122.859375 117.375 C 122.542969 117.710938 122.230469 118.046875 121.90625 118.394531 C 120.652344 119.75 119.460938 121.089844 118.378906 122.589844 C 118.109375 122.933594 117.835938 123.277344 117.554688 123.632812 C 117.136719 123.632812 116.714844 123.632812 116.28125 123.632812 C 115.871094 123.171875 115.464844 122.714844 115.042969 122.238281 C 111.632812 118.746094 107.023438 117.070312 102.210938 116.894531 C 96.558594 117.171875 92.132812 119.175781 88.023438 123.039062 C 84.449219 127.125 83.503906 131.738281 83.582031 137.03125 C 84.101562 142.796875 86.847656 147.074219 90.320312 151.566406 C 91.40625 152.980469 91.40625 152.980469 92.046875 154.253906 C 87.371094 154.328125 82.699219 154.386719 78.023438 154.421875 C 75.851562 154.4375 73.683594 154.460938 71.511719 154.496094 C 69.015625 154.535156 66.515625 154.550781 64.019531 154.566406 C 63.242188 154.582031 62.46875 154.597656 61.667969 154.617188 C 55.648438 154.617188 55.648438 154.617188 53.296875 152.800781 C 50.996094 150.015625 51.144531 147.714844 51.128906 144.160156 C 51.125 143.722656 51.125 143.285156 51.121094 142.832031 C 51.113281 141.367188 51.109375 139.902344 51.105469 138.4375 C 51.097656 137.386719 51.09375 136.335938 51.089844 135.28125 C 51.070312 131.832031 51.0625 128.382812 51.054688 124.933594 C 51.050781 123.746094 51.046875 122.554688 51.042969 121.367188 C 51.027344 116.429688 51.015625 111.488281 51.011719 106.546875 C 51 99.46875 50.976562 92.386719 50.941406 85.304688 C 50.917969 80.328125 50.90625 75.347656 50.902344 70.371094 C 50.898438 67.394531 50.890625 64.421875 50.871094 61.445312 C 50.851562 58.652344 50.847656 55.855469 50.855469 53.058594 C 50.855469 52.03125 50.851562 51.003906 50.839844 49.976562 C 50.824219 48.578125 50.828125 47.175781 50.839844 45.773438 C 50.835938 44.992188 50.835938 44.207031 50.832031 43.398438 C 51.640625 39.183594 54.210938 37.753906 58.289062 37.746094 Z M 58.289062 37.746094 " fill-opacity="1" fill-rule="nonzero"/><path fill="#093a75" d="M 224.066406 56.011719 C 267.574219 56.011719 267.574219 56.011719 276.242188 63.789062 C 280.820312 68.648438 282.324219 74.976562 282.238281 81.464844 C 281.71875 89.058594 279.46875 94.824219 273.769531 99.910156 C 272.941406 100.597656 272.105469 101.273438 271.261719 101.945312 C 270.683594 102.40625 270.105469 102.871094 269.507812 103.347656 C 269.035156 103.726562 268.558594 104.105469 268.070312 104.496094 C 269.292969 106.664062 270.515625 108.828125 271.738281 110.996094 C 272.109375 111.648438 272.476562 112.304688 272.859375 112.980469 C 274.769531 116.359375 276.683594 119.734375 278.617188 123.101562 C 278.96875 123.714844 279.320312 124.328125 279.683594 124.960938 C 280.359375 126.136719 281.035156 127.3125 281.714844 128.488281 C 282.015625 129.015625 282.320312 129.542969 282.632812 130.089844 C 282.902344 130.550781 283.167969 131.015625 283.445312 131.496094 C 284.015625 132.566406 284.015625 132.566406 284.015625 133.203125 C 277.910156 133.203125 271.808594 133.203125 265.519531 133.203125 C 261.148438 124.542969 256.945312 115.800781 252.765625 107.046875 C 248.554688 106.835938 244.347656 106.625 240.007812 106.410156 C 240.007812 115.25 240.007812 124.09375 240.007812 133.203125 C 234.746094 133.203125 229.484375 133.203125 224.066406 133.203125 C 224.066406 107.730469 224.066406 82.257812 224.066406 56.011719 Z M 224.066406 56.011719 " fill-opacity="1" fill-rule="nonzero"/><path fill="#0a3a75" d="M 544.867188 53.460938 C 549.917969 53.460938 554.96875 53.460938 560.171875 53.460938 C 560.382812 79.777344 560.59375 106.089844 560.808594 133.203125 C 555.96875 133.203125 551.128906 133.203125 546.140625 133.203125 C 546.140625 131.097656 546.140625 128.992188 546.140625 126.824219 C 545.71875 126.824219 545.300781 126.824219 544.867188 126.824219 C 544.710938 127.203125 544.554688 127.582031 544.390625 127.976562 C 542.554688 131.183594 538.8125 132.851562 535.457031 134.082031 C 529.257812 135.265625 523.035156 135 517.441406 131.925781 C 512.808594 128.671875 509.863281 125.089844 507.875 119.804688 C 507.570312 119.078125 507.570312 119.078125 507.261719 118.335938 C 503.960938 108.851562 505.222656 97.21875 509.429688 88.308594 C 512.566406 82.441406 517.355469 78.398438 523.820312 76.425781 C 525.804688 76.136719 527.753906 76.09375 529.757812 76.109375 C 530.292969 76.109375 530.828125 76.109375 531.375 76.113281 C 536.738281 76.253906 540.417969 77.722656 544.226562 81.53125 C 544.4375 72.265625 544.648438 63.003906 544.867188 53.460938 Z M 544.867188 53.460938 " fill-opacity="1" fill-rule="nonzero"/><path fill="#0a3a75" d="M 432.140625 76.148438 C 432.664062 76.152344 433.191406 76.15625 433.734375 76.164062 C 441.105469 76.363281 447 78.308594 452.386719 83.445312 C 452.925781 83.945312 452.925781 83.945312 453.476562 84.457031 C 459.914062 91.136719 460.332031 99.929688 460.21875 108.628906 C 459.949219 116.523438 456.648438 122.816406 451.03125 128.257812 C 444.648438 133.671875 436.925781 135.019531 428.789062 134.480469 C 421.808594 133.371094 415.121094 130.582031 410.578125 124.953125 C 404.988281 117.121094 403.453125 107.984375 404.871094 98.566406 C 406.585938 91.078125 409.707031 84.976562 416.160156 80.574219 C 421.246094 77.589844 426.246094 76.070312 432.140625 76.148438 Z M 432.140625 76.148438 " fill-opacity="1" fill-rule="nonzero"/><path fill="#0a3a75" d="M 598.558594 55.175781 C 599.089844 55.179688 599.617188 55.183594 600.164062 55.1875 C 608.578125 55.351562 616.335938 57.410156 622.632812 63.269531 C 626.242188 67.214844 627.53125 71.136719 627.777344 76.425781 C 623.070312 77.867188 618.664062 78.425781 613.746094 78.339844 C 613.597656 78 613.449219 77.664062 613.300781 77.3125 C 611.445312 73.292969 609.539062 71.175781 605.335938 69.570312 C 600.789062 68.195312 596.253906 68.140625 591.867188 70.070312 C 590.042969 71.109375 589.207031 72.007812 588.234375 73.875 C 587.726562 76.738281 587.988281 78.980469 589.03125 81.6875 C 593.894531 86.550781 601.660156 87.546875 608.128906 89.039062 C 616.015625 90.886719 622.449219 93.28125 627.445312 100.03125 C 630.582031 105.285156 630.460938 112.15625 629.277344 118.03125 C 627.480469 123.507812 624.085938 127.710938 619.082031 130.589844 C 614.433594 132.738281 609.3125 134.261719 604.179688 134.480469 C 603.523438 134.511719 602.871094 134.542969 602.199219 134.578125 C 592.425781 134.839844 583.257812 132.921875 575.957031 126.109375 C 572.230469 122.105469 569.738281 117.023438 569.738281 111.511719 C 571.347656 111.1875 572.953125 110.871094 574.5625 110.554688 C 575.011719 110.464844 575.460938 110.375 575.921875 110.28125 C 578.808594 109.722656 581.472656 109.507812 584.40625 109.597656 C 584.617188 110.347656 584.828125 111.097656 585.046875 111.871094 C 586.285156 115.175781 588.492188 117.269531 591.421875 119.167969 C 594.59375 120.542969 597.511719 120.679688 600.910156 120.683594 C 601.640625 120.707031 601.640625 120.707031 602.386719 120.730469 C 606.011719 120.75 608.828125 119.964844 611.832031 117.890625 C 613.554688 115.644531 613.886719 113.914062 613.746094 111.152344 C 613.417969 109.214844 613.054688 108.238281 611.992188 106.527344 C 608.390625 104.105469 604.234375 103.273438 600.078125 102.171875 C 579.339844 96.644531 579.339844 96.644531 574.839844 89.183594 C 571.777344 83.472656 571.3125 77.074219 572.6875 70.773438 C 574.675781 65.070312 578.464844 61.050781 583.769531 58.285156 C 588.65625 55.953125 593.210938 55.136719 598.558594 55.175781 Z M 598.558594 55.175781 " fill-opacity="1" fill-rule="nonzero"/><path fill="#0a3a75" d="M 328.828125 79.867188 C 333.238281 82.964844 336.144531 86.800781 338.226562 91.738281 C 338.417969 92.1875 338.609375 92.636719 338.808594 93.101562 C 340.820312 98.632812 340.140625 102.523438 340.140625 108.960938 C 327.933594 108.960938 315.726562 108.960938 303.148438 108.960938 C 304.746094 116.035156 304.746094 116.035156 308.890625 120.445312 C 312.441406 122.140625 315.863281 122.0625 319.730469 121.71875 C 321.988281 120.914062 323.136719 120.410156 324.503906 118.449219 C 327.113281 116.503906 329.832031 117.152344 332.964844 117.414062 C 333.59375 117.457031 334.21875 117.496094 334.867188 117.542969 C 336.414062 117.644531 337.957031 117.765625 339.503906 117.890625 C 338.882812 122.839844 336.53125 126.460938 332.644531 129.574219 C 325.800781 134.3125 318.265625 135.160156 310.164062 134.480469 C 303.144531 133.09375 297.464844 129.699219 293.261719 123.902344 C 291.699219 121.378906 290.652344 118.800781 289.753906 115.980469 C 289.613281 115.542969 289.46875 115.105469 289.320312 114.65625 C 286.84375 105.679688 288.320312 95.757812 292.746094 87.671875 C 300.617188 75.710938 316.632812 72.363281 328.828125 79.867188 Z M 328.828125 79.867188 " fill-opacity="1" fill-rule="nonzero"/><path fill="#0a3a75" d="M 676.394531 79.820312 C 682.308594 83.882812 684.996094 89.472656 687.089844 96.203125 C 687.726562 100.03125 687.726562 100.03125 687.726562 108.960938 C 675.519531 108.960938 663.3125 108.960938 650.738281 108.960938 C 652.335938 116.035156 652.335938 116.035156 656.476562 120.445312 C 660.210938 122.195312 664.273438 122.507812 668.226562 121.214844 C 670.539062 120.113281 671.601562 119.4375 673.058594 117.253906 C 674.632812 117.046875 674.632812 117.046875 676.566406 117.09375 C 677.585938 117.121094 677.585938 117.121094 678.628906 117.144531 C 681.460938 117.292969 684.273438 117.542969 687.089844 117.890625 C 685.433594 123.835938 683.234375 127.78125 677.878906 131.0625 C 670.625 134.90625 662.265625 135.863281 654.285156 133.761719 C 647.945312 131.441406 642.613281 127.84375 639.574219 121.695312 C 635.757812 112.761719 634.894531 101.699219 638.019531 92.375 C 641.023438 85.492188 645.679688 80.488281 652.570312 77.464844 C 660.394531 74.867188 669.328125 75.636719 676.394531 79.820312 Z M 676.394531 79.820312 " fill-opacity="1" fill-rule="nonzero"/><path fill="#093974" d="M 735.558594 77.703125 C 740.613281 77.703125 745.664062 77.703125 750.867188 77.703125 C 750.875 78.804688 750.886719 79.902344 750.894531 81.039062 C 750.929688 84.683594 750.96875 88.332031 751.015625 91.976562 C 751.046875 94.1875 751.070312 96.394531 751.089844 98.605469 C 751.109375 101.148438 751.144531 103.691406 751.179688 106.234375 C 751.183594 107.023438 751.1875 107.8125 751.191406 108.628906 C 751.265625 113.019531 751.480469 116.1875 754.375 119.6875 C 756.832031 121.632812 760.023438 121.359375 762.984375 121.082031 C 765.996094 120.003906 767.582031 118.621094 769.363281 115.980469 C 770.019531 114.003906 770.097656 112.582031 770.132812 110.507812 C 770.144531 109.78125 770.15625 109.054688 770.167969 108.304688 C 770.179688 107.519531 770.191406 106.734375 770.203125 105.921875 C 770.214844 105.121094 770.230469 104.316406 770.242188 103.484375 C 770.277344 101.351562 770.308594 99.214844 770.339844 97.078125 C 770.371094 94.894531 770.40625 92.714844 770.441406 90.535156 C 770.511719 86.257812 770.574219 81.980469 770.636719 77.703125 C 775.6875 77.703125 780.742188 77.703125 785.945312 77.703125 C 785.945312 96.015625 785.945312 114.332031 785.945312 133.203125 C 781.105469 133.203125 776.261719 133.203125 771.277344 133.203125 C 770.960938 130.359375 770.960938 130.359375 770.636719 127.460938 C 770.207031 127.902344 770.207031 127.902344 769.769531 128.347656 C 765.089844 132.816406 760.4375 134.582031 753.976562 134.796875 C 748.535156 134.621094 744.410156 132.949219 740.386719 129.273438 C 736.675781 124.921875 735.476562 120.011719 735.488281 114.421875 C 735.488281 113.601562 735.488281 112.785156 735.488281 111.945312 C 735.492188 111.058594 735.496094 110.171875 735.5 109.289062 C 735.5 108.375 735.5 107.464844 735.5 106.554688 C 735.503906 104.164062 735.507812 101.773438 735.515625 99.386719 C 735.523438 96.941406 735.527344 94.5 735.53125 92.058594 C 735.535156 87.273438 735.546875 82.488281 735.558594 77.703125 Z M 735.558594 77.703125 " fill-opacity="1" fill-rule="nonzero"/><path fill="#0a3a75" d="M 374.820312 76.226562 C 375.292969 76.230469 375.765625 76.234375 376.253906 76.238281 C 383.007812 76.386719 388.773438 78.375 393.554688 83.328125 C 396.539062 87.03125 398.816406 91.398438 398.816406 96.203125 C 396.4375 96.351562 394.0625 96.441406 391.679688 96.523438 C 390.671875 96.585938 390.671875 96.585938 389.640625 96.652344 C 387.6875 96.699219 386.039062 96.683594 384.144531 96.203125 C 382.964844 95 382.335938 93.863281 381.597656 92.351562 C 380.675781 90.546875 379.625 89.925781 377.769531 89.183594 C 375.886719 88.886719 375.886719 88.886719 373.941406 88.945312 C 373.296875 88.941406 372.652344 88.9375 371.988281 88.929688 C 369.808594 89.226562 368.660156 89.753906 366.925781 91.097656 C 365.898438 92.550781 365.898438 92.550781 365.171875 94.210938 C 364.914062 94.746094 364.652344 95.285156 364.386719 95.839844 C 362.054688 101.742188 362.328125 109.394531 364.425781 115.324219 C 365.71875 118.167969 367.230469 119.921875 370.113281 121.082031 C 373.578125 121.503906 377.191406 121.671875 380.359375 120.046875 C 382.609375 118.441406 382.609375 118.441406 384.144531 114.703125 C 388.988281 114.703125 393.828125 114.703125 398.816406 114.703125 C 397.964844 121.515625 396.03125 125.164062 390.777344 129.550781 C 388.484375 131.203125 386.171875 132.289062 383.507812 133.203125 C 382.746094 133.464844 381.984375 133.730469 381.195312 134 C 373.0625 135.785156 365.113281 134.507812 358.078125 130.132812 C 351.792969 125.597656 348.398438 119.101562 347.15625 111.511719 C 346.277344 102.105469 347.308594 92.871094 353.53125 85.359375 C 353.867188 84.953125 354.203125 84.546875 354.546875 84.128906 C 359.820312 78.332031 367.171875 76.164062 374.820312 76.226562 Z M 374.820312 76.226562 " fill-opacity="1" fill-rule="nonzero"/><path fill="#093b75" d="M 715.789062 62.390625 C 715.789062 67.445312 715.789062 72.496094 715.789062 77.703125 C 720 77.703125 724.207031 77.703125 728.546875 77.703125 C 728.546875 81.492188 728.546875 85.28125 728.546875 89.183594 C 724.335938 89.183594 720.125 89.183594 715.789062 89.183594 C 715.851562 93.035156 715.917969 96.882812 715.992188 100.730469 C 716.015625 102.039062 716.039062 103.347656 716.058594 104.65625 C 716.085938 106.539062 716.125 108.421875 716.164062 110.304688 C 716.171875 110.886719 716.179688 111.472656 716.183594 112.074219 C 716.257812 116.097656 716.257812 116.097656 717.703125 119.804688 C 720.9375 121.964844 724.71875 121.507812 728.546875 121.71875 C 728.546875 125.507812 728.546875 129.296875 728.546875 133.203125 C 725.109375 133.890625 721.949219 134.003906 718.460938 134.039062 C 717.542969 134.066406 717.542969 134.066406 716.605469 134.097656 C 712.589844 134.132812 709.558594 133.617188 706.222656 131.289062 C 702.664062 127.730469 701.039062 124.355469 700.902344 119.386719 C 700.902344 117.976562 700.914062 116.570312 700.933594 115.164062 C 700.9375 114.417969 700.9375 113.675781 700.941406 112.910156 C 700.953125 110.542969 700.976562 108.175781 701 105.8125 C 701.011719 104.203125 701.019531 102.59375 701.027344 100.984375 C 701.046875 97.050781 701.082031 93.117188 701.121094 89.183594 C 697.753906 89.183594 694.386719 89.183594 690.917969 89.183594 C 690.917969 85.394531 690.917969 81.605469 690.917969 77.703125 C 694.285156 77.703125 697.652344 77.703125 701.121094 77.703125 C 701.121094 72.859375 701.121094 68.019531 701.121094 63.03125 C 706.152344 62.46875 710.753906 62.34375 715.789062 62.390625 Z M 715.789062 62.390625 " fill-opacity="1" fill-rule="nonzero"/><path fill="#deb538" d="M 163.476562 97.476562 C 165.234375 98.871094 166.304688 99.949219 167.300781 101.945312 C 167.691406 105.378906 166.75 106.859375 164.75 109.597656 C 163.699219 110.816406 162.621094 112.011719 161.523438 113.1875 C 160.894531 113.863281 160.265625 114.542969 159.632812 115.21875 C 159.316406 115.558594 159 115.898438 158.671875 116.25 C 157.242188 117.78125 155.835938 119.335938 154.425781 120.882812 C 149.847656 125.890625 145.171875 130.816406 140.515625 135.753906 C 138.800781 137.574219 137.085938 139.394531 135.375 141.21875 C 134.996094 141.617188 134.617188 142.019531 134.226562 142.433594 C 129.78125 147.148438 129.78125 147.148438 125.660156 152.140625 C 123.171875 155.367188 120.703125 157.105469 116.640625 157.84375 C 109.121094 156.523438 101.3125 146.410156 96.867188 140.617188 C 95.289062 138.164062 94.609375 136.121094 94.890625 133.191406 C 95.527344 130.851562 96.378906 130.007812 98.421875 128.738281 C 100.714844 128.101562 102.503906 128.101562 104.800781 128.738281 C 107.222656 130.378906 109.171875 132.359375 111.179688 134.480469 C 112.027344 135.316406 112.878906 136.15625 113.730469 136.992188 C 114.367188 137.640625 115.007812 138.292969 115.644531 138.945312 C 116.273438 139.574219 116.273438 139.574219 116.917969 140.21875 C 118.527344 138.519531 120.132812 136.820312 121.742188 135.117188 C 122.191406 134.640625 122.640625 134.167969 123.101562 133.679688 C 125.644531 130.984375 128.125 128.257812 130.546875 125.460938 C 132.109375 123.675781 133.71875 121.941406 135.335938 120.203125 C 137.65625 117.699219 139.960938 115.183594 142.230469 112.628906 C 144.550781 110.03125 146.980469 107.566406 149.480469 105.140625 C 150.753906 103.886719 150.753906 103.886719 151.761719 102.417969 C 152.050781 102.050781 152.335938 101.683594 152.632812 101.304688 C 153.054688 101.304688 153.476562 101.304688 153.910156 101.304688 C 153.910156 100.886719 153.910156 100.464844 153.910156 100.03125 C 156.847656 97.46875 159.601562 96.628906 163.476562 97.476562 Z M 163.476562 97.476562 " fill-opacity="1" fill-rule="nonzero"/><path fill="#093974" d="M 501.496094 76.425781 C 502.132812 77.0625 502.132812 77.0625 502.207031 78.367188 C 502.203125 78.925781 502.199219 79.480469 502.195312 80.058594 C 502.195312 80.660156 502.191406 81.261719 502.191406 81.882812 C 502.183594 82.832031 502.183594 82.832031 502.175781 83.800781 C 502.171875 84.4375 502.167969 85.074219 502.164062 85.730469 C 502.160156 87.308594 502.148438 88.882812 502.132812 90.460938 C 501.550781 90.429688 500.964844 90.402344 500.359375 90.371094 C 494.4375 90.195312 490.902344 90.527344 486.46875 94.464844 C 483.953125 97.542969 484.453125 101.382812 484.464844 105.167969 C 484.453125 105.96875 484.445312 106.773438 484.433594 107.597656 C 484.410156 109.71875 484.402344 111.839844 484.398438 113.960938 C 484.394531 116.128906 484.371094 118.296875 484.347656 120.464844 C 484.308594 124.710938 484.289062 128.957031 484.277344 133.203125 C 479.226562 133.203125 474.175781 133.203125 468.96875 133.203125 C 468.96875 114.886719 468.96875 96.574219 468.96875 77.703125 C 473.601562 77.703125 478.230469 77.703125 483 77.703125 C 483.210938 80.019531 483.421875 82.332031 483.640625 84.71875 C 484.085938 84.035156 484.535156 83.351562 484.996094 82.644531 C 489.109375 76.90625 494.832031 75.9375 501.496094 76.425781 Z M 501.496094 76.425781 " fill-opacity="1" fill-rule="nonzero"/><path fill="#fafbfc" d="M 539.695312 89.085938 C 542.328125 90.53125 544.0625 92.28125 545.503906 94.925781 C 546.070312 97.882812 546.148438 100.757812 546.085938 103.753906 C 546.0625 105.132812 546.085938 106.503906 546.113281 107.886719 C 546.128906 111.910156 546.085938 115.257812 543.394531 118.449219 C 540.527344 121.21875 537.585938 122.152344 533.703125 122.636719 C 529.898438 122.160156 527.335938 120.730469 524.578125 118.09375 C 520.976562 112.640625 520.65625 107.113281 521.269531 100.667969 C 522.269531 96.417969 523.734375 92.203125 527.507812 89.707031 C 531.5625 87.441406 535.414062 87.179688 539.695312 89.085938 Z M 539.695312 89.085938 " fill-opacity="1" fill-rule="nonzero"/><path fill="#fbfcfc" d="M 437.890625 88.984375 C 441.28125 90.753906 442.949219 93.429688 444.152344 96.957031 C 444.785156 99.609375 444.957031 101.980469 444.933594 104.695312 C 444.929688 105.410156 444.929688 105.410156 444.925781 106.136719 C 444.828125 110.765625 444.183594 114.96875 441.425781 118.808594 C 438.628906 121.359375 436.015625 122.171875 432.296875 122.636719 C 428.523438 122.164062 425.96875 120.722656 423.171875 118.171875 C 419.789062 113.625 419.320312 107.402344 419.863281 101.945312 C 420.589844 97.09375 421.6875 93.019531 425.601562 89.824219 C 429.03125 87.617188 434.089844 87.832031 437.890625 88.984375 Z M 437.890625 88.984375 " fill-opacity="1" fill-rule="nonzero"/><path fill="#0d3b79" d="M 75.652344 58.234375 C 76.25 58.230469 76.851562 58.226562 77.46875 58.21875 C 79.449219 58.210938 81.433594 58.214844 83.414062 58.226562 C 84.792969 58.222656 86.167969 58.222656 87.546875 58.21875 C 90.433594 58.214844 93.320312 58.21875 96.207031 58.230469 C 99.910156 58.246094 103.609375 58.238281 107.3125 58.222656 C 110.15625 58.214844 113 58.214844 115.84375 58.222656 C 117.207031 58.222656 118.574219 58.222656 119.9375 58.214844 C 121.84375 58.210938 123.753906 58.21875 125.660156 58.234375 C 126.507812 58.226562 126.507812 58.226562 127.371094 58.21875 C 131.171875 58.269531 131.171875 58.269531 133.214844 59.71875 C 134.558594 61.75 134.441406 63.203125 134.136719 65.582031 C 132.96875 67.25 132.28125 67.476562 130.3125 68.132812 C 128.417969 68.207031 126.535156 68.246094 124.640625 68.257812 C 123.773438 68.265625 123.773438 68.265625 122.882812 68.273438 C 120.964844 68.289062 119.042969 68.296875 117.121094 68.308594 C 116.46875 68.3125 115.8125 68.3125 115.136719 68.316406 C 111.667969 68.335938 108.199219 68.347656 104.730469 68.355469 C 101.144531 68.367188 97.558594 68.394531 93.972656 68.429688 C 91.21875 68.449219 88.460938 68.457031 85.707031 68.460938 C 84.386719 68.464844 83.0625 68.476562 81.742188 68.488281 C 79.894531 68.511719 78.042969 68.511719 76.195312 68.503906 C 75.648438 68.515625 75.101562 68.527344 74.539062 68.539062 C 71.773438 68.507812 70.6875 68.382812 68.425781 66.636719 C 67.171875 64.945312 67.171875 64.945312 66.8125 62.988281 C 67.765625 58.007812 71.410156 58.195312 75.652344 58.234375 Z M 75.652344 58.234375 " fill-opacity="1" fill-rule="nonzero"/><path fill="#fdfdfd" d="M 240.007812 70.046875 C 242.746094 69.996094 245.480469 69.941406 248.300781 69.886719 C 249.152344 69.863281 250.003906 69.839844 250.882812 69.816406 C 255.449219 69.773438 258.480469 70.078125 262.332031 72.597656 C 265.585938 76.019531 265.710938 78.925781 265.65625 83.480469 C 265.414062 86.84375 264.179688 88.789062 261.734375 90.980469 C 258.832031 93.050781 256.738281 93.089844 253.214844 93.074219 C 252.519531 93.074219 251.828125 93.070312 251.113281 93.070312 C 250.238281 93.066406 249.363281 93.058594 248.460938 93.050781 C 244.277344 93.03125 244.277344 93.03125 240.007812 93.011719 C 240.007812 85.433594 240.007812 77.855469 240.007812 70.046875 Z M 240.007812 70.046875 " fill-opacity="1" fill-rule="nonzero"/><path fill="#09397a" d="M 75.066406 78.648438 C 75.875 78.640625 76.683594 78.632812 77.519531 78.625 C 78.394531 78.628906 79.273438 78.632812 80.148438 78.640625 C 81.054688 78.636719 81.957031 78.636719 82.863281 78.632812 C 84.753906 78.628906 86.644531 78.632812 88.539062 78.644531 C 90.960938 78.660156 93.382812 78.652344 95.804688 78.636719 C 97.671875 78.628906 99.539062 78.628906 101.40625 78.636719 C 102.296875 78.636719 103.191406 78.636719 104.085938 78.628906 C 105.332031 78.625 106.582031 78.636719 107.832031 78.648438 C 108.539062 78.648438 109.25 78.652344 109.980469 78.652344 C 112.246094 79.054688 113 79.710938 114.367188 81.53125 C 114.726562 83.761719 114.726562 83.761719 114.367188 85.996094 C 112.699219 87.703125 111.632812 88.472656 109.261719 88.867188 C 108.550781 88.867188 107.839844 88.867188 107.109375 88.867188 C 106.300781 88.875 105.492188 88.878906 104.660156 88.886719 C 103.78125 88.878906 102.90625 88.871094 102.027344 88.863281 C 101.125 88.863281 100.21875 88.863281 99.3125 88.867188 C 97.421875 88.867188 95.53125 88.859375 93.640625 88.84375 C 91.214844 88.828125 88.792969 88.828125 86.371094 88.835938 C 84.503906 88.839844 82.636719 88.835938 80.773438 88.828125 C 79.878906 88.824219 78.984375 88.824219 78.09375 88.828125 C 76.84375 88.828125 75.59375 88.816406 74.347656 88.804688 C 73.28125 88.800781 73.28125 88.800781 72.195312 88.792969 C 70.132812 88.515625 69.242188 88.132812 67.808594 86.632812 C 67.3125 83.144531 67.3125 83.144531 67.808594 81.53125 C 70.199219 79.1875 71.75 78.65625 75.066406 78.648438 Z M 75.066406 78.648438 " fill-opacity="1" fill-rule="nonzero"/><path fill="#fbfcfc" d="M 319.851562 87.511719 C 323 89.25 324.4375 92.210938 325.472656 95.566406 C 325.472656 96.828125 325.472656 98.089844 325.472656 99.390625 C 318.316406 99.390625 311.160156 99.390625 303.785156 99.390625 C 304.714844 91.957031 304.714844 91.957031 307.890625 89.027344 C 308.429688 88.65625 308.972656 88.289062 309.527344 87.910156 C 309.90625 87.644531 310.289062 87.382812 310.683594 87.113281 C 313.828125 86.03125 316.808594 86.292969 319.851562 87.511719 Z M 319.851562 87.511719 " fill-opacity="1" fill-rule="nonzero"/><path fill="#fafbfc" d="M 667.835938 87.628906 C 670.199219 89.199219 671.304688 91.035156 672.421875 93.652344 C 672.738281 96.492188 672.738281 96.492188 673.058594 99.390625 C 665.902344 99.390625 658.746094 99.390625 651.375 99.390625 C 651.984375 93.890625 652.21875 92.167969 655.839844 88.546875 C 659.445312 85.984375 663.859375 85.648438 667.835938 87.628906 Z M 667.835938 87.628906 " fill-opacity="1" fill-rule="nonzero"/><path fill="#09387b" d="M 74.167969 99.777344 C 74.597656 99.773438 75.03125 99.773438 75.476562 99.769531 C 76.386719 99.769531 77.296875 99.773438 78.210938 99.78125 C 79.605469 99.789062 80.996094 99.78125 82.390625 99.769531 C 83.277344 99.769531 84.164062 99.773438 85.050781 99.777344 C 85.855469 99.777344 86.660156 99.78125 87.492188 99.78125 C 89.492188 100.03125 89.492188 100.03125 90.710938 100.925781 C 91.574219 102.191406 91.683594 102.972656 91.6875 104.496094 C 91.699219 104.929688 91.710938 105.363281 91.722656 105.8125 C 91.40625 107.046875 91.40625 107.046875 90.382812 108.0625 C 87.472656 109.777344 83.929688 109.292969 80.628906 109.28125 C 79.292969 109.28125 77.960938 109.308594 76.625 109.335938 C 75.773438 109.339844 74.917969 109.339844 74.066406 109.339844 C 72.910156 109.347656 72.910156 109.347656 71.726562 109.355469 C 69.722656 108.960938 69.722656 108.960938 68.171875 107.46875 C 67.171875 105.773438 67.171875 105.773438 67.210938 103.777344 C 68.476562 99.902344 70.253906 99.785156 74.167969 99.777344 Z M 74.167969 99.777344 " fill-opacity="1" fill-rule="nonzero"/><path fill="#0c205f" d="M 708.773438 62.390625 C 711.089844 62.390625 713.402344 62.390625 715.789062 62.390625 C 715.789062 67.445312 715.789062 72.496094 715.789062 77.703125 C 720 77.703125 724.207031 77.703125 728.546875 77.703125 C 728.546875 81.492188 728.546875 85.28125 728.546875 89.183594 C 724.335938 89.183594 720.125 89.183594 715.789062 89.183594 C 715.789062 98.027344 715.789062 106.867188 715.789062 115.980469 C 715.578125 115.980469 715.367188 115.980469 715.152344 115.980469 C 715.136719 112.082031 715.125 108.1875 715.117188 104.292969 C 715.113281 102.96875 715.109375 101.640625 715.105469 100.316406 C 715.097656 98.414062 715.09375 96.511719 715.089844 94.609375 C 715.085938 93.714844 715.085938 93.714844 715.078125 92.800781 C 715.078125 92.253906 715.078125 91.703125 715.078125 91.136719 C 715.078125 90.652344 715.078125 90.164062 715.074219 89.664062 C 715.152344 88.546875 715.152344 88.546875 715.789062 87.910156 C 716.644531 87.855469 717.503906 87.839844 718.363281 87.847656 C 718.878906 87.847656 719.394531 87.851562 719.925781 87.851562 C 720.46875 87.859375 721.011719 87.863281 721.570312 87.871094 C 722.113281 87.871094 722.660156 87.875 723.21875 87.878906 C 724.570312 87.886719 725.917969 87.898438 727.269531 87.910156 C 727.269531 84.75 727.269531 81.59375 727.269531 78.339844 C 723.269531 78.339844 719.273438 78.339844 715.152344 78.339844 C 715.152344 73.289062 715.152344 68.234375 715.152344 63.03125 C 713.046875 63.03125 710.941406 63.03125 708.773438 63.03125 C 708.773438 62.820312 708.773438 62.609375 708.773438 62.390625 Z M 708.773438 62.390625 " fill-opacity="1" fill-rule="nonzero"/><path fill="#243870" d="M 500.859375 77.0625 C 501.28125 77.0625 501.699219 77.0625 502.132812 77.0625 C 502.132812 81.484375 502.132812 85.90625 502.132812 90.460938 C 500.753906 90.433594 499.371094 90.410156 497.949219 90.382812 C 494.59375 90.375 491.871094 90.546875 488.742188 91.738281 C 490.050781 90.304688 490.660156 89.820312 492.566406 89.183594 C 495.332031 89.097656 498.089844 89.15625 500.859375 89.183594 C 500.859375 85.183594 500.859375 81.183594 500.859375 77.0625 Z M 500.859375 77.0625 " fill-opacity="1" fill-rule="nonzero"/><path fill="#082060" d="M 326.109375 117.253906 C 330.527344 117.464844 334.949219 117.675781 339.503906 117.890625 C 338.960938 121.132812 338.671875 122.363281 336.949219 124.910156 C 336.742188 124.488281 336.53125 124.066406 336.3125 123.632812 C 336.910156 122.128906 337.546875 120.636719 338.226562 119.167969 C 337.234375 119.121094 337.234375 119.121094 336.222656 119.074219 C 335.351562 119.027344 334.476562 118.976562 333.601562 118.929688 C 333.167969 118.910156 332.734375 118.890625 332.285156 118.871094 C 329.777344 118.722656 328.410156 118.40625 326.109375 117.253906 Z M 326.109375 117.253906 " fill-opacity="1" fill-rule="nonzero"/><path fill="#efc72f" d="M 134.136719 121.71875 C 134.136719 123.632812 134.136719 123.632812 133.066406 124.847656 C 132.605469 125.277344 132.144531 125.703125 131.667969 126.144531 C 129.894531 127.796875 128.816406 129.128906 127.761719 131.289062 C 126.558594 132.472656 125.265625 133.4375 123.933594 134.480469 C 123.511719 134.269531 123.09375 134.058594 122.660156 133.839844 C 122.929688 133.578125 123.199219 133.316406 123.476562 133.042969 C 125.964844 130.59375 128.300781 128.0625 130.582031 125.421875 C 131.710938 124.128906 132.898438 122.910156 134.136719 121.71875 Z M 134.136719 121.71875 " fill-opacity="1" fill-rule="nonzero"/><path fill="#081f60" d="M 677.523438 117.890625 C 680.679688 117.890625 683.835938 117.890625 687.089844 117.890625 C 685.265625 124.089844 685.265625 124.089844 682.625 126.1875 C 683.550781 123.765625 684.636719 121.472656 685.8125 119.167969 C 683.078125 118.957031 680.34375 118.746094 677.523438 118.53125 C 677.523438 118.320312 677.523438 118.109375 677.523438 117.890625 Z M 677.523438 117.890625 " fill-opacity="1" fill-rule="nonzero"/><path fill="#16457c" d="M 280.1875 75.789062 C 280.820312 76 281.453125 76.210938 282.101562 76.425781 C 282.152344 77.554688 282.191406 78.683594 282.222656 79.816406 C 282.253906 80.757812 282.253906 80.757812 282.289062 81.722656 C 282.101562 83.445312 282.101562 83.445312 280.1875 85.359375 C 280.1875 82.199219 280.1875 79.042969 280.1875 75.789062 Z M 280.1875 75.789062 " fill-opacity="1" fill-rule="nonzero"/><path fill="#062d7f" d="M 139.878906 98.753906 C 140.089844 99.386719 140.300781 100.015625 140.515625 100.667969 C 140.214844 100.921875 139.914062 101.175781 139.605469 101.4375 C 139.210938 101.777344 138.8125 102.113281 138.402344 102.460938 C 138.011719 102.796875 137.617188 103.128906 137.214844 103.472656 C 136.144531 104.414062 135.132812 105.390625 134.136719 106.410156 C 134.488281 103.9375 135.589844 102.839844 137.367188 101.148438 C 137.835938 100.695312 138.300781 100.246094 138.785156 99.78125 C 139.144531 99.441406 139.507812 99.101562 139.878906 98.753906 Z M 139.878906 98.753906 " fill-opacity="1" fill-rule="nonzero"/><path fill="#021c60" d="M 595.25 121.082031 C 598.40625 121.292969 601.5625 121.503906 604.816406 121.71875 C 604.816406 121.929688 604.816406 122.140625 604.816406 122.359375 C 601.871094 122.570312 598.921875 122.777344 595.886719 122.996094 C 595.675781 122.363281 595.46875 121.734375 595.25 121.082031 Z M 595.25 121.082031 " fill-opacity="1" fill-rule="nonzero"/><path fill="#0a2b68" d="M 349.707031 92.375 C 350.492188 94.730469 350.117188 96.332031 349.707031 98.753906 C 349.285156 98.542969 348.863281 98.332031 348.429688 98.117188 C 348.988281 93.09375 348.988281 93.09375 349.707031 92.375 Z M 349.707031 92.375 " fill-opacity="1" fill-rule="nonzero"/><path fill="#052c83" d="M 136.6875 139.582031 C 136.898438 140.214844 137.109375 140.84375 137.328125 141.496094 C 135.644531 142.757812 133.960938 144.023438 132.226562 145.324219 C 133.46875 142.832031 134.695312 141.472656 136.6875 139.582031 Z M 136.6875 139.582031 " fill-opacity="1" fill-rule="nonzero"/><path fill="#0e2967" d="M 294.21875 85.996094 C 294.429688 86.835938 294.640625 87.679688 294.859375 88.546875 C 294.226562 88.757812 293.59375 88.96875 292.945312 89.183594 C 292.171875 90.460938 292.171875 90.460938 291.667969 91.738281 C 292.007812 89.300781 292.625 87.871094 294.21875 85.996094 Z M 294.21875 85.996094 " fill-opacity="1" fill-rule="nonzero"/></svg>