<?xml version="1.0" encoding="UTF-8"?>
<svg version="1.1" xmlns="http://www.w3.org/2000/svg" width="1536" height="1024">
<path d="M0 0 C506.88 0 1013.76 0 1536 0 C1536 337.92 1536 675.84 1536 1024 C1029.12 1024 522.24 1024 0 1024 C0 686.08 0 348.16 0 0 Z " fill="#FEFEFE" transform="translate(0,0)"/>
<path d="M0 0 C0.70087738 0.00087616 1.40175476 0.00175232 2.12387085 0.00265503 C31.51954021 0.1217092 117.89283064 4.89283064 139.375 26.375 C139.47785057 28.11415242 139.51021116 29.85750256 139.51544189 31.59968567 C139.52115204 32.73331039 139.52686218 33.86693512 139.53274536 35.03491211 C139.53386322 36.29029785 139.53498108 37.54568359 139.53613281 38.83911133 C139.54109772 40.15312424 139.54606262 41.46713715 139.55117798 42.82096863 C139.56433977 46.441971 139.57075715 50.06295478 139.57518864 53.68397737 C139.5781203 55.95339535 139.58222584 58.22280829 139.58669281 60.49222374 C139.60039304 67.61176366 139.61004077 74.73129201 139.6138947 81.8508442 C139.61834713 90.02977089 139.63575171 98.20852808 139.6648953 106.38740331 C139.68668784 112.72738975 139.69660864 119.06732922 139.69793582 125.40735263 C139.6989737 129.18294357 139.70465723 132.95837579 139.72275543 136.73392677 C139.8118144 156.43780684 139.69324217 175.94272875 133.5 194.875 C133.10603027 196.12301392 133.10603027 196.12301392 132.70410156 197.39624023 C130.6150611 203.89442216 128.32999539 210.21432839 125.375 216.375 C125.0454834 217.06384277 124.7159668 217.75268555 124.37646484 218.46240234 C116.11482432 235.50316679 105.54951017 249.81025442 92.375 263.375 C91.77671387 263.99906738 91.17842773 264.62313477 90.56201172 265.26611328 C82.20410521 273.96043867 73.67539942 281.95098418 63.99707031 289.14990234 C62.47028373 290.30303526 60.97972789 291.50369573 59.4921875 292.70703125 C48.46373172 301.5739097 36.38312074 308.92375891 24.375 316.375 C22.94196533 317.2707373 22.94196533 317.2707373 21.47998047 318.18457031 C18.89484436 319.79041124 16.29567683 321.36943027 13.6875 322.9375 C12.92872559 323.40857178 12.16995117 323.87964355 11.38818359 324.36499023 C8.15452133 326.26604288 6.12372106 327.37116532 2.32421875 327.390625 C-1.37390617 326.11709854 -4.73128236 324.48183938 -8.125 322.5625 C-8.87620117 322.140896 -9.62740234 321.71929199 -10.40136719 321.28491211 C-18.43282784 316.66028426 -26.15624564 311.56027526 -33.875 306.4375 C-34.50140381 306.02374115 -35.12780762 305.6099823 -35.77319336 305.1836853 C-59.03379783 289.77593214 -81.64495212 271.68989237 -98.625 249.375 C-99.02283691 248.85357422 -99.42067383 248.33214844 -99.83056641 247.79492188 C-127.09851347 211.74973863 -134.20804824 172.09304955 -133.92918181 127.69076347 C-133.91004264 124.11144741 -133.90863601 120.53211814 -133.90510559 116.95275879 C-133.8958918 110.21736872 -133.87142761 103.48212998 -133.84105712 96.74680567 C-133.80717449 89.06080627 -133.79094327 81.37479848 -133.77597082 73.68874264 C-133.74486439 57.91740836 -133.69231897 42.14622392 -133.625 26.375 C-132.34546956 25.89224288 -131.06566129 25.41022208 -129.78573608 24.92851257 C-129.07307272 24.66000834 -128.36040936 24.39150412 -127.62615013 24.1148634 C-102.55983421 14.847368 -75.35032747 9.49736997 -49.0625 5 C-48.3560434 4.87857635 -47.64958679 4.75715271 -46.92172241 4.63204956 C-31.31022997 1.97441935 -15.86892558 -0.02241511 0 0 Z " fill="#093C77" transform="translate(310.625,347.625)"/>
<path d="M0 0 C1.21969986 -0.01409912 2.43939972 -0.02819824 3.69606018 -0.04272461 C5.039524 -0.03300404 6.38298413 -0.02276326 7.72644043 -0.01205444 C9.14763 -0.01883297 10.56881079 -0.02773743 11.98997498 -0.03860474 C15.84341704 -0.0613775 19.69618895 -0.05257063 23.54964256 -0.03670931 C27.58454554 -0.02403959 31.61939161 -0.03579338 35.65429688 -0.04364014 C42.42991424 -0.05273362 49.205259 -0.04075686 55.98083496 -0.01693726 C63.81145528 0.01027368 71.64142467 0.00145928 79.47202921 -0.02606928 C86.19832377 -0.0487681 92.92442251 -0.05195673 99.65074301 -0.03887594 C103.66673036 -0.03108558 107.68241188 -0.03002813 111.69837952 -0.04655838 C115.47433971 -0.06101541 119.24946174 -0.05096029 123.0253315 -0.0220871 C124.41002066 -0.01548267 125.79478052 -0.01736316 127.17944145 -0.02840042 C137.75809093 -0.10494172 137.75809093 -0.10494172 142.23968506 2.73019409 C144.31105077 6.29477068 144.62151315 8.63835947 144.73327637 12.75747681 C144.75810089 13.45587677 144.78292542 14.15427673 144.8085022 14.87384033 C144.88131548 17.17726717 144.91557439 19.47896866 144.9432373 21.78335571 C144.96444263 22.97300871 144.96444263 22.97300871 144.98607635 24.1866951 C145.06095946 28.39266448 145.1071366 32.59778204 145.12878418 36.80435181 C145.15065752 40.25953002 145.21981727 43.70842446 145.3338623 47.16177368 C146.3623976 78.87236049 146.3623976 78.87236049 138.64593506 87.37017822 C136.0992454 89.662064 133.48439984 91.66245736 130.60174561 93.5118866 C128.47662092 94.93744943 126.94303418 96.63228775 125.3651123 98.63491821 C122.11170883 102.48060796 118.68355343 106.14760508 115.2401123 109.82241821 C114.63828125 110.4654187 114.0364502 111.10841919 113.41638184 111.77090454 C112.19238459 113.07855628 110.96826301 114.38609166 109.74401855 115.69351196 C106.90272631 118.730334 104.06810395 121.77320854 101.2401123 124.82241821 C100.74744873 125.35053101 100.25478516 125.8786438 99.74719238 126.42276001 C97.7800852 128.54698769 95.91720448 130.64932721 94.22058105 132.99819946 C93.79390137 133.53831665 93.36722168 134.07843384 92.9276123 134.63491821 C92.2676123 134.63491821 91.6076123 134.63491821 90.9276123 134.63491821 C90.2882373 133.91304321 89.6488623 133.19116821 88.9901123 132.44741821 C83.64191695 126.97411887 76.41312362 124.34476914 68.8651123 124.07241821 C60.00394464 124.50802542 53.06731411 127.6438347 46.61901855 133.70132446 C41.01660775 140.10592804 39.5368023 147.33674266 39.65808105 155.63882446 C40.47081843 164.67316604 44.77670358 171.38040359 50.22058105 178.42007446 C51.9276123 180.63491821 51.9276123 180.63491821 52.9276123 182.63491821 C45.59953795 182.75102372 38.2716635 182.83973944 30.94285393 182.89397907 C27.53932975 182.92001845 24.13643711 182.95530913 20.73327637 183.01211548 C16.81636241 183.07708461 12.89969973 183.10114574 8.9822998 183.12319946 C7.7664621 183.14900589 6.55062439 183.17481232 5.29794312 183.20140076 C-4.14222444 183.20452606 -4.14222444 183.20452606 -7.82580566 180.35440063 C-11.43235643 175.98867916 -11.20100828 172.38383311 -11.22628784 166.80961609 C-11.2306701 166.12368942 -11.23505235 165.43776276 -11.2395674 164.73105043 C-11.25291827 162.4334599 -11.25912576 160.13590768 -11.26525879 157.83828735 C-11.2731624 156.19065682 -11.28143151 154.54302801 -11.29003906 152.895401 C-11.31621922 147.48697555 -11.33155813 142.07854249 -11.3458252 136.67007446 C-11.35118566 134.80789116 -11.35656317 132.94570791 -11.36195755 131.0835247 C-11.3835763 123.33969449 -11.40231473 115.59586633 -11.41357994 107.85201359 C-11.42983336 96.75268581 -11.46305627 85.65370725 -11.51998079 74.55451113 C-11.55864666 66.74974593 -11.57820838 58.9450743 -11.5835005 51.14021581 C-11.58715725 46.47805923 -11.59921354 41.81627548 -11.63160324 37.15422249 C-11.66162668 32.77021727 -11.6680164 28.38681163 -11.65621948 24.0027256 C-11.6559983 22.39385495 -11.66434062 20.78495692 -11.68187332 19.17618179 C-11.70451439 16.97913136 -11.69629704 14.78426489 -11.6803894 12.58720398 C-11.68369955 11.35811845 -11.6870097 10.12903292 -11.69042015 8.86270237 C-10.42483855 2.25297789 -6.39341487 0.01138978 0 0 Z " fill="#DEB438" transform="translate(247.0723876953125,400.3650817871094)"/>
<path d="M0 0 C68.2221223 0 68.2221223 0 81.8125 12.1875 C88.9886923 19.80478214 91.34797622 29.73016428 91.2109375 39.8984375 C90.40131864 51.80283327 86.86817237 60.84229617 77.9375 68.8125 C76.63697373 69.88962298 75.3238293 70.95164963 74 72 C73.09378906 72.72574219 72.18757812 73.45148438 71.25390625 74.19921875 C70.51011719 74.79347656 69.76632812 75.38773437 69 76 C70.91572954 79.39636277 72.83266907 82.79204101 74.75 86.1875 C75.32967529 87.21439941 75.90935059 88.24129883 76.5065918 89.29931641 C79.50065081 94.59783948 82.50497898 99.8900065 85.53515625 105.16796875 C86.08655273 106.12872314 86.63794922 107.08947754 87.20605469 108.0793457 C88.26603783 109.92400634 89.32784885 111.76761799 90.39160156 113.61010742 C90.86694336 114.43744385 91.34228516 115.26478027 91.83203125 116.1171875 C92.25202393 116.84534668 92.6720166 117.57350586 93.10473633 118.32373047 C94 120 94 120 94 121 C84.43 121 74.86 121 65 121 C58.14518572 107.42219479 51.55615059 93.72420856 45 80 C38.4 79.67 31.8 79.34 25 79 C25 92.86 25 106.72 25 121 C16.75 121 8.5 121 0 121 C0 81.07 0 41.14 0 0 Z " fill="#093A75" transform="translate(507,429)"/>
<path d="M0 0 C7.92 0 15.84 0 24 0 C24.33 41.25 24.66 82.5 25 125 C17.41 125 9.82 125 2 125 C2 121.7 2 118.4 2 115 C1.34 115 0.68 115 0 115 C-0.24492188 115.59554687 -0.48984375 116.19109375 -0.7421875 116.8046875 C-3.62324542 121.83311778 -9.49067009 124.44657903 -14.75 126.375 C-24.47323879 128.23072748 -34.23091273 127.81975019 -43 123 C-50.2636586 117.89777343 -54.88355855 112.28517361 -58 104 C-58.47566406 102.85917969 -58.47566406 102.85917969 -58.9609375 101.6953125 C-64.13842121 86.82785929 -62.15985598 68.59347594 -55.5625 54.625 C-50.64456256 45.42744149 -43.13268394 39.08979827 -33 36 C-29.88471452 35.54703254 -26.83241933 35.47646958 -23.6875 35.5 C-22.85025391 35.50281982 -22.01300781 35.50563965 -21.15039062 35.50854492 C-12.74524979 35.7281431 -6.97082385 38.02917615 -1 44 C-0.67 29.48 -0.34 14.96 0 0 Z " fill="#0A3A75" transform="translate(1010,425)"/>
<path d="M0 0 C0.82483887 0.00829834 1.64967773 0.01659668 2.49951172 0.02514648 C14.06152128 0.34137431 23.30373589 3.38528066 31.75 11.4375 C32.59498047 12.22253906 32.59498047 12.22253906 33.45703125 13.0234375 C43.54747126 23.49705877 44.20851283 37.2777264 44.02734375 50.91796875 C43.60807947 63.28939382 38.42850714 73.15462508 29.625 81.6875 C19.61717041 90.17129462 7.50754282 92.28800285 -5.25 91.4375 C-16.19860088 89.70157951 -26.68410659 85.32860613 -33.80859375 76.5078125 C-42.57031228 64.22829676 -44.97544906 49.90426383 -42.75390625 35.140625 C-40.06381063 23.40755256 -35.17039046 13.83968461 -25.05078125 6.9375 C-17.08030982 2.26371571 -9.24191819 -0.1212775 0 0 Z " fill="#0A3A75" transform="translate(833.25,460.5625)"/>
<path d="M0 0 C0.83080078 0.00563965 1.66160156 0.0112793 2.51757812 0.01708984 C15.71316674 0.27477632 27.8771249 3.506355 37.75 12.6875 C43.40841344 18.87511758 45.42848522 25.01778068 45.8125 33.3125 C38.43164771 35.57194458 31.5261262 36.44782678 23.8125 36.3125 C23.58175781 35.78140625 23.35101562 35.2503125 23.11328125 34.703125 C20.20313362 28.39972223 17.21560321 25.0803889 10.625 22.5625 C3.50053417 20.40859173 -3.61258385 20.32564412 -10.4921875 23.34765625 C-13.3519757 24.97523156 -14.66117909 26.38705159 -16.1875 29.3125 C-16.98380113 33.79998866 -16.57056882 37.31652107 -14.9375 41.5625 C-7.31444992 49.18555008 4.86579511 50.74601039 15.00683594 53.08203125 C27.36985924 55.97867192 37.46214898 59.73366169 45.29296875 70.3125 C50.21215903 78.55258769 50.02139737 89.31899074 48.1640625 98.52734375 C45.34582656 107.11453273 40.02489994 113.70088447 32.1796875 118.21875 C24.89201241 121.58599261 16.85971229 123.9694572 8.8125 124.3125 C7.78769531 124.3640625 6.76289062 124.415625 5.70703125 124.46875 C-9.61771043 124.87695622 -23.99319588 121.87429497 -35.4375 111.19140625 C-41.28008561 104.91845161 -45.1875 96.95144528 -45.1875 88.3125 C-42.66806604 87.80437886 -40.14733127 87.30585466 -37.625 86.8125 C-36.92052734 86.66941406 -36.21605469 86.52632812 -35.49023438 86.37890625 C-30.96859762 85.50375075 -26.79262972 85.16726595 -22.1875 85.3125 C-21.8575 86.488125 -21.5275 87.66375 -21.1875 88.875 C-19.24582629 94.05586398 -15.78388948 97.33410402 -11.1875 100.3125 C-6.21369643 102.46566172 -1.64204258 102.6786026 3.6875 102.6875 C4.83412109 102.72423828 4.83412109 102.72423828 6.00390625 102.76171875 C11.68444191 102.79065187 16.10012795 101.56156023 20.8125 98.3125 C23.51465757 94.7915068 24.03520888 92.07486275 23.8125 87.75 C23.30206883 84.7078302 22.72874496 83.17789369 21.0625 80.5 C15.41354016 76.69781549 8.89785141 75.39481018 2.38330078 73.66894531 C-30.13113417 65.00413254 -30.13113417 65.00413254 -37.1875 53.3125 C-41.98828148 44.3596913 -42.71909597 34.32912402 -40.5625 24.44921875 C-37.44926803 15.51257518 -31.50487195 9.21221542 -23.1875 4.875 C-15.52688841 1.22163768 -8.38536534 -0.05999342 0 0 Z " fill="#0A3A75" transform="translate(1094.1875,427.6875)"/>
<path d="M0 0 C6.91930208 4.86013825 11.47610273 10.87215672 14.73828125 18.609375 C15.03992188 19.31449219 15.3415625 20.01960938 15.65234375 20.74609375 C18.80297733 29.41769738 17.73828125 35.52026106 17.73828125 45.609375 C-1.40171875 45.609375 -20.54171875 45.609375 -40.26171875 45.609375 C-37.75654597 56.69693045 -37.75654597 56.69693045 -31.26171875 63.609375 C-25.69222914 66.27056457 -20.32294368 66.14394708 -14.26171875 65.609375 C-10.72394226 64.3458834 -8.92291529 63.55593005 -6.77734375 60.484375 C-2.68471256 57.43396666 1.57510495 58.44721773 6.48828125 58.859375 C7.47183594 58.92511719 8.45539063 58.99085938 9.46875 59.05859375 C11.89390356 59.22341001 14.31596714 59.40762123 16.73828125 59.609375 C15.76873207 67.36576846 12.07979278 73.04125217 5.98828125 77.921875 C-4.74351046 85.35157696 -16.56084772 86.67650405 -29.26171875 85.609375 C-40.26754043 83.44043492 -49.17434121 78.11939124 -55.76171875 69.03125 C-58.21128966 65.07621364 -59.85550141 61.03295316 -61.26171875 56.609375 C-61.48730469 55.92617188 -61.71289062 55.24296875 -61.9453125 54.5390625 C-65.82433935 40.46755822 -63.51134514 24.91057252 -56.57421875 12.234375 C-44.22954686 -6.51351823 -19.1216668 -11.75701793 0 0 Z " fill="#0A3A75" transform="translate(671.26171875,466.390625)"/>
<path d="M0 0 C9.27093515 6.3661581 13.48499737 15.13253886 16.76953125 25.6796875 C17.76953125 31.6796875 17.76953125 31.6796875 17.76953125 45.6796875 C-1.37046875 45.6796875 -20.51046875 45.6796875 -40.23046875 45.6796875 C-37.72529597 56.76724295 -37.72529597 56.76724295 -31.23046875 63.6796875 C-25.37261753 66.42186953 -19.00442174 66.91535275 -12.80859375 64.88671875 C-9.18086486 63.15891357 -7.51237044 62.10254003 -5.23046875 58.6796875 C-2.76171875 58.3515625 -2.76171875 58.3515625 0.26953125 58.4296875 C1.87054687 58.46835937 1.87054687 58.46835937 3.50390625 58.5078125 C7.94684276 58.74165126 12.35457497 59.13270177 16.76953125 59.6796875 C14.17077434 68.99718177 10.72211442 75.18307252 2.328125 80.32421875 C-9.04749924 86.35069449 -22.15043183 87.84670115 -34.66796875 84.5546875 C-44.60776398 80.92023857 -52.96617197 75.2761106 -57.734375 65.640625 C-63.71520982 51.63422552 -65.06692716 34.29625193 -60.16796875 19.6796875 C-55.46203617 8.89305551 -48.15870781 1.04555846 -37.35546875 -3.6953125 C-25.08817545 -7.76162978 -11.07687029 -6.55688644 0 0 Z " fill="#0A3A75" transform="translate(1216.23046875,466.3203125)"/>
<path d="M0 0 C7.92 0 15.84 0 24 0 C24.01458252 1.72557129 24.02916504 3.45114258 24.04418945 5.22900391 C24.09593776 10.94481006 24.16124958 16.66035473 24.23571491 22.37590981 C24.2803494 25.83961259 24.31962018 29.30319964 24.34643555 32.76708984 C24.37753763 36.75383392 24.43232449 40.74008676 24.48828125 44.7265625 C24.49467117 45.96427399 24.5010611 47.20198547 24.50764465 48.47720337 C24.62507591 55.36349629 24.96115028 60.32805659 29.5 65.8125 C33.35113256 68.86131328 38.35463708 68.43749137 43 68 C47.71878688 66.30835942 50.20582817 64.13951382 53 60 C54.03266482 56.90200554 54.15509525 54.67740727 54.20532227 51.42700195 C54.22526749 50.28604568 54.24521271 49.14508942 54.26576233 47.96955872 C54.28247482 46.73823715 54.29918732 45.50691559 54.31640625 44.23828125 C54.33718735 42.97735153 54.35796844 41.71642181 54.37937927 40.4172821 C54.43372122 37.06854542 54.48396166 33.71979795 54.53222656 30.37097168 C54.58250357 26.95233771 54.63815724 23.53379174 54.69335938 20.11523438 C54.80053504 13.4102242 54.90180812 6.70514752 55 0 C62.92 0 70.84 0 79 0 C79 28.71 79 57.42 79 87 C71.41 87 63.82 87 56 87 C55.505 82.545 55.505 82.545 55 78 C54.32517578 78.68835938 54.32517578 78.68835938 53.63671875 79.390625 C46.29813909 86.39095349 39.00755684 89.16152019 28.875 89.5 C20.34666186 89.22038236 13.8733649 86.60054048 7.5703125 80.83984375 C1.74708884 74.01711155 -0.13081278 66.32208062 -0.11352539 57.55737305 C-0.11344986 56.27642258 -0.11337433 54.99547211 -0.11329651 53.67570496 C-0.10819065 52.28770915 -0.10297467 50.89971375 -0.09765625 49.51171875 C-0.09578975 48.08396962 -0.09436694 46.65621985 -0.09336853 45.22846985 C-0.08956165 41.48186455 -0.07974707 37.7352984 -0.06866455 33.9887085 C-0.05841102 30.16109751 -0.05386248 26.33348016 -0.04882812 22.50585938 C-0.03812307 15.00388639 -0.02054118 7.50195368 0 0 Z " fill="#093974" transform="translate(1309,463)"/>
<path d="M0 0 C0.74314453 0.00563965 1.48628906 0.0112793 2.25195312 0.01708984 C12.8386375 0.25014458 21.88130481 3.3641297 29.37890625 11.12890625 C34.05752915 16.93321286 37.625 23.78273357 37.625 31.3125 C33.89689132 31.54542281 30.17065008 31.68709124 26.4375 31.8125 C24.85485352 31.91304688 24.85485352 31.91304688 23.24023438 32.015625 C20.17929623 32.09287265 17.59549266 32.0680668 14.625 31.3125 C12.77387842 29.42529313 11.78428211 27.643623 10.6315918 25.27392578 C9.1823301 22.44992178 7.5338196 21.47425417 4.625 20.3125 C1.67575193 19.84167564 1.67575193 19.84167564 -1.375 19.9375 C-2.385625 19.92976563 -3.39625 19.92203125 -4.4375 19.9140625 C-7.85491267 20.37759454 -9.65495441 21.20307689 -12.375 23.3125 C-13.98935165 25.59093597 -13.98935165 25.59093597 -15.125 28.1875 C-15.53234375 29.03054688 -15.9396875 29.87359375 -16.359375 30.7421875 C-20.01478867 39.99319593 -19.58317251 51.98998897 -16.29296875 61.2890625 C-14.27043909 65.74723427 -11.89601958 68.49460751 -7.375 70.3125 C-1.94702425 70.97090044 3.71923787 71.23532673 8.6875 68.6875 C12.21285833 66.17268421 12.21285833 66.17268421 14.625 60.3125 C22.215 60.3125 29.805 60.3125 37.625 60.3125 C36.29013577 70.99141385 33.26233281 76.71400762 25.01953125 83.58984375 C21.42415488 86.17640326 17.80122997 87.87762894 13.625 89.3125 C12.42875 89.725 11.2325 90.1375 10 90.5625 C-2.75330554 93.35704902 -15.21630387 91.35928109 -26.25 84.5 C-36.10526441 77.3892396 -41.42329813 67.20524447 -43.375 55.3125 C-44.74988483 40.5653503 -43.13187142 26.0912773 -33.375 14.3125 C-32.85035156 13.67699219 -32.32570313 13.04148437 -31.78515625 12.38671875 C-23.51590222 3.30026785 -11.99073799 -0.09599173 0 0 Z " fill="#0A3A75" transform="translate(743.375,460.6875)"/>
<path d="M0 0 C0 7.92 0 15.84 0 24 C6.6 24 13.2 24 20 24 C20 29.94 20 35.88 20 42 C13.4 42 6.8 42 0 42 C0.09701308 48.03268171 0.19979351 54.064689 0.31738281 60.09692383 C0.35562625 62.14829534 0.39048719 64.19973284 0.421875 66.2512207 C0.46762602 69.20287638 0.52560422 72.15407953 0.5859375 75.10546875 C0.59748871 76.02023483 0.60903992 76.93500092 0.62094116 77.87748718 C0.73279737 84.18412544 0.73279737 84.18412544 3 90 C8.07408011 93.38272008 14.00243268 92.66985868 20 93 C20 98.94 20 104.88 20 111 C14.61443307 112.07711339 9.65537725 112.25807521 4.1875 112.3125 C2.74793945 112.35600586 2.74793945 112.35600586 1.27929688 112.40039062 C-5.01875965 112.45627782 -9.76953536 111.65083614 -15 108 C-20.57867431 102.42132569 -23.12962515 97.12873691 -23.34057617 89.34008789 C-23.34010488 87.13422031 -23.32337532 84.9283143 -23.29296875 82.72265625 C-23.28872391 81.5561705 -23.28447906 80.38968475 -23.28010559 79.18785095 C-23.26337522 75.47916126 -23.22573221 71.77102418 -23.1875 68.0625 C-23.17244593 65.5410235 -23.15875879 63.01953844 -23.14648438 60.49804688 C-23.11348997 54.33181983 -23.06174553 48.16600347 -23 42 C-28.28 42 -33.56 42 -39 42 C-39 36.06 -39 30.12 -39 24 C-33.72 24 -28.44 24 -23 24 C-23 16.41 -23 8.82 -23 1 C-15.11323169 0.12369241 -7.894328 -0.07664396 0 0 Z " fill="#093B75" transform="translate(1278,439)"/>
<path d="M0 0 C2.75569447 2.18159145 4.43588747 3.87177494 6 7 C6.61194371 12.38510466 5.13359417 14.70463113 2 19 C0.35065154 20.90864635 -1.3394172 22.78264637 -3.0625 24.625 C-4.0496239 25.68606329 -5.03659913 26.7472649 -6.0234375 27.80859375 C-6.52198242 28.34210449 -7.02052734 28.87561523 -7.53417969 29.42529297 C-9.77119266 31.82847979 -11.97699044 34.25994645 -14.1875 36.6875 C-21.37041863 44.54026725 -28.69829895 52.25796079 -36 60 C-38.68964619 62.8521549 -41.37695317 65.70648521 -44.0625 68.5625 C-44.65708008 69.1925293 -45.25166016 69.82255859 -45.86425781 70.47167969 C-52.83379654 77.85968092 -52.83379654 77.85968092 -59.29516602 85.68676758 C-63.19397347 90.74534188 -67.0655166 93.46645756 -73.4375 94.625 C-85.22428233 92.55714345 -97.46656263 76.70144498 -104.4375 67.625 C-106.91459477 63.77814223 -107.97868546 60.5759926 -107.5390625 55.984375 C-106.54278487 52.31691822 -105.20711894 50.98841374 -102 49 C-98.40669927 48.00150759 -95.59808795 48.00111221 -92 49 C-88.20087229 51.57232605 -85.14728402 54.6787455 -82 58 C-80.66845594 59.3143152 -79.33534024 60.62704188 -78 61.9375 C-76.99799514 62.95636552 -75.997636 63.97685626 -75 65 C-74.01 65.99 -74.01 65.99 -73 67 C-70.4767373 64.33562335 -67.95685345 61.66807299 -65.4375 59 C-64.73302734 58.25621094 -64.02855469 57.51242187 -63.30273438 56.74609375 C-59.32038563 52.52517112 -55.43017114 48.24617949 -51.62817383 43.86230469 C-49.18238445 41.0648116 -46.65710236 38.34420772 -44.125 35.625 C-40.48180209 31.69989136 -36.87174409 27.75181209 -33.3125 23.75 C-29.67073961 19.67706579 -25.86397535 15.81411226 -21.9453125 12.0078125 C-19.9498976 10.04402879 -19.9498976 10.04402879 -18.3671875 7.7421875 C-17.91601562 7.16726563 -17.46484375 6.59234375 -17 6 C-16.34 6 -15.68 6 -15 6 C-15 5.34 -15 4.68 -15 4 C-10.39275106 -0.016576 -6.07755124 -1.3319127 0 0 Z " fill="#DEB538" transform="translate(412,494)"/>
<path d="M0 0 C1 1 1 1 1.11352539 3.04125977 C1.10828857 3.91580811 1.10305176 4.79035645 1.09765625 5.69140625 C1.09443359 6.63564453 1.09121094 7.57988281 1.08789062 8.55273438 C1.07532227 10.04256836 1.07532227 10.04256836 1.0625 11.5625 C1.05798828 12.55958984 1.05347656 13.55667969 1.04882812 14.58398438 C1.03700007 17.05604849 1.02051849 19.52799518 1 22 C0.0821875 21.95359375 -0.835625 21.9071875 -1.78125 21.859375 C-11.07008616 21.58617394 -16.61003395 22.10560789 -23.56494141 28.27539062 C-27.5099821 33.10084503 -26.72622483 39.1207007 -26.70703125 45.0546875 C-26.72215256 46.31137238 -26.73727386 47.56805725 -26.75285339 48.86282349 C-26.7884741 52.1872934 -26.80288517 55.51046109 -26.80688477 58.83502197 C-26.81624059 62.23393241 -26.85366912 65.63252405 -26.88867188 69.03125 C-26.95155237 75.68756671 -26.98386627 82.34341246 -27 89 C-34.92 89 -42.84 89 -51 89 C-51 60.29 -51 31.58 -51 2 C-43.74 2 -36.48 2 -29 2 C-28.67 5.63 -28.34 9.26 -28 13 C-27.29875 11.9275 -26.5975 10.855 -25.875 9.75 C-19.4222214 0.75246364 -10.45309215 -0.76572907 0 0 Z " fill="#093974" transform="translate(942,461)"/>
<path d="M0 0 C4.12612449 2.27085269 6.84176683 5.01276419 9.10400391 9.15795898 C9.99187744 13.79391803 10.11375211 18.2965073 10.01660156 22.99389648 C9.97903376 25.15624054 10.01632037 27.30842518 10.06103516 29.47045898 C10.08306344 35.77819436 10.01901137 41.02983215 5.79931641 46.03295898 C1.30428527 50.37349243 -3.31006105 51.8347171 -9.39599609 52.59545898 C-15.36327326 51.84954934 -19.38038229 49.60621217 -23.70849609 45.47045898 C-29.3500736 36.92749876 -29.85755934 28.25965643 -28.89599609 18.15795898 C-27.32682765 11.49502836 -25.03048091 4.89015682 -19.11083984 0.97827148 C-12.75223026 -2.57470882 -6.71779662 -2.98347676 0 0 Z " fill="#FAFBFC" transform="translate(1001.89599609375,480.842041015625)"/>
<path d="M0 0 C5.31671226 2.77393683 7.93224063 6.9638044 9.8203125 12.4921875 C10.81620877 16.65452319 11.08008323 20.36808985 11.046875 24.625 C11.03950317 25.74322144 11.03950317 25.74322144 11.03198242 26.8840332 C10.87839233 34.13899925 9.87102003 40.73125759 5.546875 46.75 C1.15768506 50.74903972 -2.93633687 52.02133898 -8.765625 52.75 C-14.68732179 52.0097879 -18.69217939 49.74608377 -23.078125 45.75 C-28.37714103 38.62497168 -29.11529568 28.86821169 -28.265625 20.3125 C-27.12089835 12.70960715 -25.40197946 6.32360609 -19.265625 1.3125 C-13.89003843 -2.1465731 -5.95799181 -1.80794234 0 0 Z " fill="#FBFCFC" transform="translate(842.265625,480.6875)"/>
<path d="M0 0 C0.94025528 -0.00700928 1.88051056 -0.01401855 2.84925842 -0.02124023 C5.95774861 -0.0388475 9.06532865 -0.02718754 12.17382812 -0.01367188 C14.33329442 -0.016366 16.49275954 -0.02024775 18.65222168 -0.02526855 C23.17825875 -0.03116732 27.70398009 -0.02258825 32.22998047 -0.00390625 C38.03428021 0.01888324 43.83784014 0.00576222 49.64211273 -0.01819611 C54.10135482 -0.0326437 58.56042123 -0.0280528 63.01966858 -0.01768494 C65.15991808 -0.01501479 67.30018349 -0.01829749 69.44041443 -0.02760315 C72.4307587 -0.03775139 75.41990156 -0.02229131 78.41015625 0 C79.73969078 -0.01214539 79.73969078 -0.01214539 81.09608459 -0.02453613 C87.05639028 0.0578622 87.05639028 0.0578622 90.25866699 2.32727051 C92.36208996 5.51249443 92.17934115 7.79122582 91.70507812 11.51757812 C89.87392606 14.13350965 88.79539446 14.48747268 85.70507812 15.51757812 C82.73443123 15.63493328 79.78640701 15.69573589 76.81494141 15.71044922 C75.45107803 15.72271545 75.45107803 15.72271545 74.05966187 15.73522949 C71.04824482 15.76005984 68.03687476 15.77659154 65.02539062 15.79101562 C63.99732174 15.7963393 62.96925285 15.80166298 61.91003036 15.80714798 C56.47078955 15.83386648 51.0315716 15.85324747 45.59228516 15.86767578 C39.97076585 15.88434056 34.34983086 15.92913762 28.72853279 15.98004723 C24.40826734 16.01367241 20.0881416 16.02524789 15.76775742 16.03090286 C13.69527585 16.03762601 11.62280382 16.05287554 9.55044937 16.07679367 C6.65114622 16.1083528 3.75343316 16.1084961 0.85400391 16.10107422 C-0.002276 16.11747955 -0.85855591 16.13388489 -1.74078369 16.15078735 C-6.0803159 16.10529301 -7.78464538 15.9116405 -11.33157349 13.17251587 C-13.29492188 10.51757812 -13.29492188 10.51757812 -13.85742188 7.45507812 C-12.36160932 -0.35638745 -6.6507844 -0.06075535 0 0 Z " fill="#0D3B79" transform="translate(274.294921875,432.482421875)"/>
<path d="M0 0 C4.29 -0.0825 8.58 -0.165 13 -0.25 C14.33675781 -0.28641602 15.67351563 -0.32283203 17.05078125 -0.36035156 C24.20767174 -0.42677779 28.96420245 0.05047336 35 4 C40.10322472 9.36492855 40.2969143 13.91861286 40.2109375 21.0546875 C39.83335359 26.32687759 37.8956441 29.37722655 34.0625 32.8125 C29.51624035 36.05982832 26.23193378 36.12373554 20.703125 36.09765625 C19.61676758 36.09515869 18.53041016 36.09266113 17.41113281 36.09008789 C16.03795898 36.08098389 14.66478516 36.07187988 13.25 36.0625 C6.69125 36.0315625 6.69125 36.0315625 0 36 C0 24.12 0 12.24 0 0 Z " fill="#FDFDFD" transform="translate(532,451)"/>
<path d="M0 0 C1.2680397 -0.01260864 2.53607941 -0.02521729 3.84254456 -0.03820801 C5.21787067 -0.03104872 6.5931917 -0.02284486 7.96850586 -0.01367188 C9.38667568 -0.01636833 10.80484369 -0.02025203 12.2230072 -0.02526855 C15.18954132 -0.03115462 18.15559249 -0.02262899 21.12207031 -0.00390625 C24.92100149 0.01890465 28.71880356 0.00574257 32.51769352 -0.01819611 C35.44401028 -0.03266103 38.37005994 -0.0280455 41.29638481 -0.01768494 C42.69699679 -0.0150206 44.09763317 -0.01827717 45.49821663 -0.02760315 C47.4558375 -0.03778034 49.41354367 -0.01951324 51.37109375 0 C52.4840834 0.00318237 53.59707306 0.00636475 54.74378967 0.00964355 C58.29393061 0.63640815 59.47456099 1.6641177 61.62084961 4.51757812 C62.18334961 8.01757812 62.18334961 8.01757812 61.62084961 11.51757812 C59.00680054 14.19394692 57.33199684 15.39892776 53.61680603 16.01878357 C52.50302078 16.01894974 51.38923553 16.01911591 50.24169922 16.01928711 C48.97365952 16.02866806 47.70561981 16.03804901 46.39915466 16.04771423 C45.02382733 16.03723668 43.64850653 16.02586777 42.27319336 16.01367188 C40.85502549 16.01382695 39.4368572 16.01531727 38.01869202 16.01808167 C35.05214617 16.01946365 32.08608499 16.00694059 29.11962891 15.98413086 C25.32083998 15.95572013 21.52285433 15.9584929 17.7240057 15.97122097 C14.79770568 15.97818124 11.87159078 15.97038547 8.94531441 15.95796394 C7.54471103 15.95345461 6.14408774 15.95310813 4.74348259 15.95702934 C2.78582349 15.95994527 0.82816831 15.94126112 -1.12939453 15.92163086 C-2.79887901 15.91352638 -2.79887901 15.91352638 -4.50209045 15.90525818 C-7.73641768 15.46943683 -9.1326364 14.86831259 -11.37915039 12.51757812 C-12.16070379 7.04670434 -12.16070379 7.04670434 -11.37915039 4.51757812 C-7.62933474 0.84792455 -5.19968051 0.01485683 0 0 Z " fill="#09397A" transform="translate(273.379150390625,464.482421875)"/>
<path d="M0 0 C4.93936934 2.72785684 7.18957063 7.36608463 8.8125 12.625 C8.8125 14.605 8.8125 16.585 8.8125 18.625 C-2.4075 18.625 -13.6275 18.625 -25.1875 18.625 C-23.73097826 6.97282609 -23.73097826 6.97282609 -18.75 2.375 C-17.904375 1.7975 -17.05875 1.22 -16.1875 0.625 C-15.589375 0.2125 -14.99125 -0.2 -14.375 -0.625 C-9.43998733 -2.31700434 -4.76652105 -1.91021259 0 0 Z " fill="#FBFCFC" transform="translate(657.1875,478.375)"/>
<path d="M0 0 C3.70673991 2.45969284 5.43967764 5.33683985 7.1875 9.4375 C7.6825 13.8925 7.6825 13.8925 8.1875 18.4375 C-3.0325 18.4375 -14.2525 18.4375 -25.8125 18.4375 C-24.85424229 9.81318065 -24.48679479 7.11179479 -18.8125 1.4375 C-13.15916353 -2.58265038 -6.23793238 -3.10558007 0 0 Z " fill="#FAFBFC" transform="translate(1202.8125,478.5625)"/>
<path d="M0 0 C0.67671753 -0.00287018 1.35343506 -0.00574036 2.05065918 -0.00869751 C3.47958209 -0.01073647 4.90853302 -0.00521819 6.33740234 0.00732422 C8.52374725 0.02338239 10.70824379 0.00747216 12.89453125 -0.01171875 C14.28385824 -0.00973629 15.67318409 -0.00589254 17.0625 0 C18.32642578 0.00338379 19.59035156 0.00676758 20.89257812 0.01025391 C24.03125 0.3984375 24.03125 0.3984375 25.93969727 1.80224609 C27.29480424 3.78383621 27.4642234 5.00839244 27.46875 7.3984375 C27.48808594 8.0790625 27.50742187 8.7596875 27.52734375 9.4609375 C27.03125 11.3984375 27.03125 11.3984375 25.42602539 12.99023438 C20.86044779 15.67493736 15.30524242 14.91642385 10.13183594 14.89941406 C8.0370194 14.89844018 5.94585172 14.94010867 3.8515625 14.984375 C2.51563261 14.98958159 1.17969004 14.9922702 -0.15625 14.9921875 C-1.97189453 15.00282227 -1.97189453 15.00282227 -3.82421875 15.01367188 C-6.96875 14.3984375 -6.96875 14.3984375 -9.3984375 12.05664062 C-10.96875 9.3984375 -10.96875 9.3984375 -10.90625 6.2734375 C-8.92512509 0.19798779 -6.13401272 0.01642201 0 0 Z " fill="#09387B" transform="translate(271.96875,497.6015625)"/>
<path d="M0 0 C3.63 0 7.26 0 11 0 C11 7.92 11 15.84 11 24 C17.6 24 24.2 24 31 24 C31 29.94 31 35.88 31 42 C24.4 42 17.8 42 11 42 C11 55.86 11 69.72 11 84 C10.67 84 10.34 84 10 84 C9.97535487 77.8944529 9.95716629 71.78893449 9.94506836 65.68334961 C9.94002712 63.60456844 9.93319426 61.52579084 9.92456055 59.44702148 C9.91248578 56.46597414 9.90676976 53.48497351 9.90234375 50.50390625 C9.89460182 49.10078941 9.89460182 49.10078941 9.88670349 47.66932678 C9.88662796 46.80850998 9.88655243 45.94769318 9.88647461 45.06079102 C9.884254 44.29912125 9.88203339 43.53745148 9.87974548 42.75270081 C10 41 10 41 11 40 C12.34267413 39.91368126 13.68974322 39.89293527 15.03515625 39.90234375 C15.84404297 39.90556641 16.65292969 39.90878906 17.48632812 39.91210938 C18.33646484 39.92048828 19.18660156 39.92886719 20.0625 39.9375 C20.91650391 39.94201172 21.77050781 39.94652344 22.65039062 39.95117188 C24.76695663 39.96299627 26.88348685 39.98093231 29 40 C29 35.05 29 30.1 29 25 C22.73 25 16.46 25 10 25 C10 17.08 10 9.16 10 1 C6.7 1 3.4 1 0 1 C0 0.67 0 0.34 0 0 Z " fill="#0C205F" transform="translate(1267,439)"/>
<path d="M0 0 C0.66 0 1.32 0 2 0 C2 6.93 2 13.86 2 21 C-0.165625 20.95875 -2.33125 20.9175 -4.5625 20.875 C-9.82310963 20.8643402 -14.09590724 21.13177419 -19 23 C-16.94766315 20.7522025 -15.99332739 19.9977758 -13 19 C-8.66328697 18.86498403 -4.33988266 18.95703086 0 19 C0 12.73 0 6.46 0 0 Z " fill="#243870" transform="translate(941,462)"/>
<path d="M0 0 C6.93 0.33 13.86 0.66 21 1 C20.15332803 6.0800318 19.69856257 8.01082055 17 12 C16.67 11.34 16.34 10.68 16 10 C16.93578995 7.64018187 17.93347808 5.30368736 19 3 C17.44539062 2.92652344 17.44539062 2.92652344 15.859375 2.8515625 C14.48955792 2.77650403 13.11976752 2.70095753 11.75 2.625 C11.06808594 2.5940625 10.38617187 2.563125 9.68359375 2.53125 C5.75089375 2.30216068 3.61105794 1.80552897 0 0 Z " fill="#082060" transform="translate(667,525)"/>
<path d="M0 0 C0 3 0 3 -1.6796875 4.90234375 C-2.40414063 5.57394531 -3.12859375 6.24554687 -3.875 6.9375 C-6.65558789 9.52374573 -8.34490023 11.61394172 -10 15 C-11.88215868 16.85290233 -13.91358806 18.36715588 -16 20 C-16.66 19.67 -17.32 19.34 -18 19 C-17.57589844 18.5875 -17.15179688 18.175 -16.71484375 17.75 C-12.81596362 13.91110265 -9.15038018 9.94427544 -5.578125 5.80078125 C-3.80350185 3.7757781 -1.94223065 1.86454143 0 0 Z " fill="#EFC72F" transform="translate(366,532)"/>
<path d="M0 0 C4.95 0 9.9 0 15 0 C12.14285714 9.71428571 12.14285714 9.71428571 8 13 C9.44950455 9.2089881 11.15172566 5.6125362 13 2 C8.71 1.67 4.42 1.34 0 1 C0 0.67 0 0.34 0 0 Z " fill="#081F60" transform="translate(1218,526)"/>
<path d="M0 0 C0.99 0.33 1.98 0.66 3 1 C3.08114106 2.77007714 3.13925505 4.54122098 3.1875 6.3125 C3.23970703 7.79169922 3.23970703 7.79169922 3.29296875 9.30078125 C3 12 3 12 0 15 C0 10.05 0 5.1 0 0 Z " fill="#16457C" transform="translate(595,460)"/>
<path d="M0 0 C0.33 0.99 0.66 1.98 1 3 C0.52949219 3.39832031 0.05898438 3.79664063 -0.42578125 4.20703125 C-1.04839844 4.73683594 -1.67101562 5.26664062 -2.3125 5.8125 C-2.92738281 6.33457031 -3.54226563 6.85664063 -4.17578125 7.39453125 C-5.85424679 8.87172469 -7.43882034 10.40039131 -9 12 C-8.45015228 8.12488273 -6.72444669 6.40423494 -3.9375 3.75 C-3.20402344 3.04359375 -2.47054688 2.3371875 -1.71484375 1.609375 C-1.14894531 1.07828125 -0.58304687 0.5471875 0 0 Z " fill="#062D7F" transform="translate(375,496)"/>
<path d="M0 0 C4.95 0.33 9.9 0.66 15 1 C15 1.33 15 1.66 15 2 C10.38 2.33 5.76 2.66 1 3 C0.67 2.01 0.34 1.02 0 0 Z " fill="#021C60" transform="translate(1089,531)"/>
<path d="M0 0 C1.231394 3.69418201 0.64432764 6.2056261 0 10 C-0.66 9.67 -1.32 9.34 -2 9 C-1.125 1.125 -1.125 1.125 0 0 Z " fill="#0A2B68" transform="translate(704,486)"/>
<path d="M0 0 C0.33 0.99 0.66 1.98 1 3 C-1.64 4.98 -4.28 6.96 -7 9 C-5.04783565 5.09567131 -3.12613393 2.96160056 0 0 Z " fill="#052C83" transform="translate(370,560)"/>
<path d="M0 0 C0.33 1.32 0.66 2.64 1 4 C0.01 4.33 -0.98 4.66 -2 5 C-3.20882096 7.00016466 -3.20882096 7.00016466 -4 9 C-3.46930939 5.17902761 -2.50298434 2.93828597 0 0 Z " fill="#0E2967" transform="translate(617,476)"/>
</svg>
